# xmcd CD database file
#
# Track frame offsets:
#	150
#	16635
#	41550
#	56367
#	75942
#	84235
#	94480
#	116630
#	129712
#	167805
#	186030
#	208825
#	225230
#	244685
#	273830
#	299680
#	314580
#
# Disc length: 4427 seconds
#
# Revision: 0
# Processed by: cddbd v1.5.1PL2 Copyright (c) Steve Scherf et al.
# Submitted via: CDex 1.51
#
DISCID=e0114911
DTITLE=L'Harmonie des Cascades de Beauport - Noël
DYEAR=1900
DGENRE=Noël
TTITLE0=Les anges dans nos campagnes (Cascades)
TTITLE1=German Carol Festival
TTITLE2=Sleigh Ride (Cascades)
TTITLE3=Adeste fideles (Cascades)
TTITLE4=Joy to the World (Cascades)
TTITLE5=Les bergers et les anges
TTITLE6=Christmas "Pop" Sing-a-Long
TTITLE7=O Tannenbaum (Cascades)
TTITLE8=Canadian Brass Christmas Suite
TTITLE9=Gesù bambino (Cascades)
TTITLE10=Christmas in the Air
TTITLE11=Panis angelicus (Cascades)
TTITLE12=Greensleeves (Cascades)
TTITLE13=Christmas Festival
TTITLE14=Minuit, chrétiens (Cascades)
TTITLE15=Cantate n° 147
TTITLE16=Hallelujah
EXTD=
EXTT0=
EXTT1=
EXTT2=
EXTT3=
EXTT4=
EXTT5=
EXTT6=
EXTT7=
EXTT8=
EXTT9=
EXTT10=
EXTT11=
EXTT12=
EXTT13=
EXTT14=
EXTT15=
EXTT16=
PLAYORDER=
